<svg width="110" height="110" viewBox="0 0 110 110" fill="none" xmlns="http://www.w3.org/2000/svg">
<g filter="url(#filter0_d_3_21)">
<rect x="5" y="1" width="100" height="100" rx="10" fill="#181718"/>
<rect x="4.5" y="0.5" width="101" height="101" rx="10.5" stroke="#FFB0D2"/>
</g>
<path d="M50.496 46.16C49.92 45.0507 49.12 44.2187 48.096 43.664C47.072 43.088 45.888 42.8 44.544 42.8C43.072 42.8 41.76 43.1307 40.608 43.792C39.456 44.4533 38.5493 45.392 37.888 46.608C37.248 47.824 36.928 49.232 36.928 50.832C36.928 52.432 37.248 53.8507 37.888 55.088C38.5493 56.304 39.456 57.2427 40.608 57.904C41.76 58.5653 43.072 58.896 44.544 58.896C46.528 58.896 48.1387 58.3413 49.376 57.232C50.6133 56.1227 51.3707 54.6187 51.648 52.72H43.296V49.808H55.552V52.656C55.3173 54.384 54.6987 55.9733 53.696 57.424C52.7147 58.8747 51.424 60.0373 49.824 60.912C48.2453 61.7653 46.4853 62.192 44.544 62.192C42.4533 62.192 40.544 61.712 38.816 60.752C37.088 59.7707 35.712 58.416 34.688 56.688C33.6853 54.96 33.184 53.008 33.184 50.832C33.184 48.656 33.6853 46.704 34.688 44.976C35.712 43.248 37.088 41.904 38.816 40.944C40.5653 39.9627 42.4747 39.472 44.544 39.472C46.912 39.472 49.0133 40.0587 50.848 41.232C52.704 42.384 54.048 44.0267 54.88 46.16H50.496ZM61.006 42.032C60.3447 42.032 59.79 41.808 59.342 41.36C58.894 40.912 58.67 40.3573 58.67 39.696C58.67 39.0347 58.894 38.48 59.342 38.032C59.79 37.584 60.3447 37.36 61.006 37.36C61.646 37.36 62.19 37.584 62.638 38.032C63.086 38.48 63.31 39.0347 63.31 39.696C63.31 40.3573 63.086 40.912 62.638 41.36C62.19 41.808 61.646 42.032 61.006 42.032ZM62.798 44.368V62H59.15V44.368H62.798ZM71.8435 47.344V57.104C71.8435 57.7653 71.9928 58.2453 72.2915 58.544C72.6115 58.8213 73.1448 58.96 73.8915 58.96H76.1315V62H73.2515C71.6088 62 70.3502 61.616 69.4755 60.848C68.6008 60.08 68.1635 58.832 68.1635 57.104V47.344H66.0835V44.368H68.1635V39.984H71.8435V44.368H76.1315V47.344H71.8435Z" fill="#FFB0D2"/>
<defs>
<filter id="filter0_d_3_21" x="0" y="0" width="110" height="110" filterUnits="userSpaceOnUse" color-interpolation-filters="sRGB">
<feFlood flood-opacity="0" result="BackgroundImageFix"/>
<feColorMatrix in="SourceAlpha" type="matrix" values="0 0 0 0 0 0 0 0 0 0 0 0 0 0 0 0 0 0 127 0" result="hardAlpha"/>
<feOffset dy="4"/>
<feGaussianBlur stdDeviation="2"/>
<feComposite in2="hardAlpha" operator="out"/>
<feColorMatrix type="matrix" values="0 0 0 0 0 0 0 0 0 0 0 0 0 0 0 0 0 0 0.25 0"/>
<feBlend mode="normal" in2="BackgroundImageFix" result="effect1_dropShadow_3_21"/>
<feBlend mode="normal" in="SourceGraphic" in2="effect1_dropShadow_3_21" result="shape"/>
</filter>
</defs>
</svg>
