<svg width="110" height="110" viewBox="0 0 110 110" fill="none" xmlns="http://www.w3.org/2000/svg">
<g filter="url(#filter0_d_3_24)">
<rect x="5" y="1" width="100" height="100" rx="10" fill="#181718"/>
<rect x="4.5" y="0.5" width="101" height="101" rx="10.5" stroke="#FFB0D2"/>
</g>
<path d="M26.464 47.288C26.464 48.136 26.264 48.936 25.864 49.688C25.464 50.44 24.824 51.056 23.944 51.536C23.064 52 21.936 52.232 20.56 52.232H17.536V59H14.8V42.32H20.56C21.84 42.32 22.92 42.544 23.8 42.992C24.696 43.424 25.36 44.016 25.792 44.768C26.24 45.52 26.464 46.36 26.464 47.288ZM20.56 50C21.6 50 22.376 49.768 22.888 49.304C23.4 48.824 23.656 48.152 23.656 47.288C23.656 45.464 22.624 44.552 20.56 44.552H17.536V50H20.56ZM40.9774 45.776L32.8654 65.216H30.0334L32.7214 58.784L27.5134 45.776H30.5614L34.2814 55.856L38.1454 45.776H40.9774ZM46.2342 48.008V55.328C46.2342 55.824 46.3462 56.184 46.5702 56.408C46.8102 56.616 47.2102 56.72 47.7702 56.72H49.4502V59H47.2902C46.0582 59 45.1142 58.712 44.4582 58.136C43.8022 57.56 43.4742 56.624 43.4742 55.328V48.008H41.9142V45.776H43.4742V42.488H46.2342V45.776H49.4502V48.008H46.2342ZM58.8119 45.56C59.8199 45.56 60.7159 45.776 61.4999 46.208C62.2999 46.64 62.9239 47.28 63.3719 48.128C63.8359 48.976 64.0679 50 64.0679 51.2V59H61.3559V51.608C61.3559 50.424 61.0599 49.52 60.4679 48.896C59.8759 48.256 59.0679 47.936 58.0439 47.936C57.0199 47.936 56.2039 48.256 55.5959 48.896C55.0039 49.52 54.7079 50.424 54.7079 51.608V59H51.9719V41.24H54.7079V47.312C55.1719 46.752 55.7559 46.32 56.4599 46.016C57.1799 45.712 57.9639 45.56 58.8119 45.56ZM73.2938 59.216C72.0458 59.216 70.9178 58.936 69.9098 58.376C68.9018 57.8 68.1098 57 67.5338 55.976C66.9578 54.936 66.6698 53.736 66.6698 52.376C66.6698 51.032 66.9658 49.84 67.5578 48.8C68.1498 47.76 68.9578 46.96 69.9818 46.4C71.0058 45.84 72.1498 45.56 73.4138 45.56C74.6778 45.56 75.8218 45.84 76.8458 46.4C77.8698 46.96 78.6778 47.76 79.2698 48.8C79.8618 49.84 80.1578 51.032 80.1578 52.376C80.1578 53.72 79.8538 54.912 79.2458 55.952C78.6378 56.992 77.8058 57.8 76.7498 58.376C75.7098 58.936 74.5578 59.216 73.2938 59.216ZM73.2938 56.84C73.9978 56.84 74.6538 56.672 75.2618 56.336C75.8858 56 76.3898 55.496 76.7738 54.824C77.1578 54.152 77.3498 53.336 77.3498 52.376C77.3498 51.416 77.1658 50.608 76.7978 49.952C76.4298 49.28 75.9418 48.776 75.3338 48.44C74.7258 48.104 74.0698 47.936 73.3658 47.936C72.6618 47.936 72.0058 48.104 71.3978 48.44C70.8058 48.776 70.3338 49.28 69.9818 49.952C69.6298 50.608 69.4538 51.416 69.4538 52.376C69.4538 53.8 69.8138 54.904 70.5338 55.688C71.2698 56.456 72.1898 56.84 73.2938 56.84ZM89.5345 45.56C90.5745 45.56 91.5025 45.776 92.3185 46.208C93.1505 46.64 93.7985 47.28 94.2625 48.128C94.7265 48.976 94.9585 50 94.9585 51.2V59H92.2465V51.608C92.2465 50.424 91.9505 49.52 91.3585 48.896C90.7665 48.256 89.9585 47.936 88.9345 47.936C87.9105 47.936 87.0945 48.256 86.4865 48.896C85.8945 49.52 85.5985 50.424 85.5985 51.608V59H82.8625V45.776H85.5985V47.288C86.0465 46.744 86.6145 46.32 87.3025 46.016C88.0065 45.712 88.7505 45.56 89.5345 45.56Z" fill="#FFB0D2"/>
<defs>
<filter id="filter0_d_3_24" x="0" y="0" width="110" height="110" filterUnits="userSpaceOnUse" color-interpolation-filters="sRGB">
<feFlood flood-opacity="0" result="BackgroundImageFix"/>
<feColorMatrix in="SourceAlpha" type="matrix" values="0 0 0 0 0 0 0 0 0 0 0 0 0 0 0 0 0 0 127 0" result="hardAlpha"/>
<feOffset dy="4"/>
<feGaussianBlur stdDeviation="2"/>
<feComposite in2="hardAlpha" operator="out"/>
<feColorMatrix type="matrix" values="0 0 0 0 0 0 0 0 0 0 0 0 0 0 0 0 0 0 0.25 0"/>
<feBlend mode="normal" in2="BackgroundImageFix" result="effect1_dropShadow_3_24"/>
<feBlend mode="normal" in="SourceGraphic" in2="effect1_dropShadow_3_24" result="shape"/>
</filter>
</defs>
</svg>
