<svg width="110" height="110" viewBox="0 0 110 110" fill="none" xmlns="http://www.w3.org/2000/svg">
<g filter="url(#filter0_d_3_18)">
<rect x="5" y="1" width="100" height="100" rx="10" fill="#181718"/>
<rect x="4.5" y="0.5" width="101" height="101" rx="10.5" stroke="#FFB0D2"/>
</g>
<path d="M22.952 62L17.832 53.104H15.048V62H11.4V39.76H19.08C20.7867 39.76 22.2267 40.0587 23.4 40.656C24.5947 41.2533 25.48 42.0533 26.056 43.056C26.6533 44.0587 26.952 45.1787 26.952 46.416C26.952 47.8667 26.5253 49.1893 25.672 50.384C24.84 51.5573 23.5493 52.3573 21.8 52.784L27.304 62H22.952ZM15.048 50.192H19.08C20.4453 50.192 21.4693 49.8507 22.152 49.168C22.856 48.4853 23.208 47.568 23.208 46.416C23.208 45.264 22.8667 44.368 22.184 43.728C21.5013 43.0667 20.4667 42.736 19.08 42.736H15.048V50.192ZM47.7788 52.752C47.7788 53.4133 47.7361 54.0107 47.6508 54.544H34.1788C34.2854 55.952 34.8081 57.0827 35.7468 57.936C36.6854 58.7893 37.8374 59.216 39.2028 59.216C41.1654 59.216 42.5521 58.3947 43.3628 56.752H47.2987C46.7654 58.3733 45.7948 59.7067 44.3868 60.752C43.0001 61.776 41.2721 62.288 39.2028 62.288C37.5174 62.288 36.0028 61.9147 34.6588 61.168C33.3361 60.4 32.2908 59.3333 31.5228 57.968C30.7761 56.5813 30.4028 54.9813 30.4028 53.168C30.4028 51.3547 30.7654 49.7653 31.4908 48.4C32.2374 47.0133 33.2721 45.9467 34.5948 45.2C35.9388 44.4533 37.4748 44.08 39.2028 44.08C40.8668 44.08 42.3494 44.4427 43.6508 45.168C44.9521 45.8933 45.9654 46.9173 46.6908 48.24C47.4161 49.5413 47.7788 51.0453 47.7788 52.752ZM43.9708 51.6C43.9494 50.256 43.4694 49.1787 42.5308 48.368C41.5921 47.5573 40.4294 47.152 39.0428 47.152C37.7841 47.152 36.7068 47.5573 35.8108 48.368C34.9148 49.1573 34.3814 50.2347 34.2108 51.6H43.9708ZM50.1528 53.104C50.1528 51.3333 50.5154 49.7653 51.2408 48.4C51.9874 47.0347 52.9901 45.9787 54.2488 45.232C55.5288 44.464 56.9368 44.08 58.4728 44.08C59.8594 44.08 61.0648 44.3573 62.0888 44.912C63.1341 45.4453 63.9661 46.1173 64.5848 46.928V44.368H68.2648V62H64.5848V59.376C63.9661 60.208 63.1234 60.9013 62.0568 61.456C60.9901 62.0107 59.7741 62.288 58.4088 62.288C56.8941 62.288 55.5074 61.904 54.2488 61.136C52.9901 60.3467 51.9874 59.2587 51.2408 57.872C50.5154 56.464 50.1528 54.8747 50.1528 53.104ZM64.5848 53.168C64.5848 51.952 64.3288 50.896 63.8168 50C63.3261 49.104 62.6754 48.4213 61.8648 47.952C61.0541 47.4827 60.1794 47.248 59.2408 47.248C58.3021 47.248 57.4274 47.4827 56.6168 47.952C55.8061 48.4 55.1448 49.072 54.6328 49.968C54.1421 50.8427 53.8968 51.888 53.8968 53.104C53.8968 54.32 54.1421 55.3867 54.6328 56.304C55.1448 57.2213 55.8061 57.9253 56.6168 58.416C57.4488 58.8853 58.3234 59.12 59.2408 59.12C60.1794 59.12 61.0541 58.8853 61.8648 58.416C62.6754 57.9467 63.3261 57.264 63.8168 56.368C64.3288 55.4507 64.5848 54.384 64.5848 53.168ZM71.8403 53.168C71.8403 51.3547 72.2029 49.7653 72.9283 48.4C73.6749 47.0133 74.6989 45.9467 76.0003 45.2C77.3016 44.4533 78.7949 44.08 80.4803 44.08C82.6136 44.08 84.3736 44.592 85.7603 45.616C87.1683 46.6187 88.1176 48.0587 88.6083 49.936H84.6723C84.3523 49.0613 83.8403 48.3787 83.1363 47.888C82.4323 47.3973 81.5469 47.152 80.4803 47.152C78.9869 47.152 77.7923 47.6853 76.8963 48.752C76.0216 49.7973 75.5843 51.2693 75.5843 53.168C75.5843 55.0667 76.0216 56.5493 76.8963 57.616C77.7923 58.6827 78.9869 59.216 80.4803 59.216C82.5923 59.216 83.9896 58.288 84.6723 56.432H88.6083C88.0963 58.224 87.1363 59.6533 85.7283 60.72C84.3203 61.7653 82.5709 62.288 80.4803 62.288C78.7949 62.288 77.3016 61.9147 76.0003 61.168C74.6989 60.4 73.6749 59.3333 72.9283 57.968C72.2029 56.5813 71.8403 54.9813 71.8403 53.168ZM96.4998 47.344V57.104C96.4998 57.7653 96.6491 58.2453 96.9478 58.544C97.2678 58.8213 97.8011 58.96 98.5478 58.96H100.788V62H97.9078C96.2651 62 95.0064 61.616 94.1318 60.848C93.2571 60.08 92.8198 58.832 92.8198 57.104V47.344H90.7398V44.368H92.8198V39.984H96.4998V44.368H100.788V47.344H96.4998Z" fill="#FFB0D2"/>
<defs>
<filter id="filter0_d_3_18" x="0" y="0" width="110" height="110" filterUnits="userSpaceOnUse" color-interpolation-filters="sRGB">
<feFlood flood-opacity="0" result="BackgroundImageFix"/>
<feColorMatrix in="SourceAlpha" type="matrix" values="0 0 0 0 0 0 0 0 0 0 0 0 0 0 0 0 0 0 127 0" result="hardAlpha"/>
<feOffset dy="4"/>
<feGaussianBlur stdDeviation="2"/>
<feComposite in2="hardAlpha" operator="out"/>
<feColorMatrix type="matrix" values="0 0 0 0 0 0 0 0 0 0 0 0 0 0 0 0 0 0 0.25 0"/>
<feBlend mode="normal" in2="BackgroundImageFix" result="effect1_dropShadow_3_18"/>
<feBlend mode="normal" in="SourceGraphic" in2="effect1_dropShadow_3_18" result="shape"/>
</filter>
</defs>
</svg>
