<svg width="110" height="110" viewBox="0 0 110 110" fill="none" xmlns="http://www.w3.org/2000/svg">
<g filter="url(#filter0_d_3_8)">
<rect x="5" y="1" width="100" height="100" rx="10" fill="#181718"/>
<rect x="4.5" y="0.5" width="101" height="101" rx="10.5" stroke="#FFB0D2"/>
</g>
<path d="M24.184 52.832C24.184 50.656 24.6853 48.704 25.688 46.976C26.712 45.248 28.088 43.904 29.816 42.944C31.5653 41.9627 33.4747 41.472 35.544 41.472C37.912 41.472 40.0133 42.0587 41.848 43.232C43.704 44.384 45.048 46.0267 45.88 48.16H41.496C40.92 46.9867 40.12 46.112 39.096 45.536C38.072 44.96 36.888 44.672 35.544 44.672C34.072 44.672 32.76 45.0027 31.608 45.664C30.456 46.3253 29.5493 47.2747 28.888 48.512C28.248 49.7493 27.928 51.1893 27.928 52.832C27.928 54.4747 28.248 55.9147 28.888 57.152C29.5493 58.3893 30.456 59.3493 31.608 60.032C32.76 60.6933 34.072 61.024 35.544 61.024C36.888 61.024 38.072 60.736 39.096 60.16C40.12 59.584 40.92 58.7093 41.496 57.536H45.88C45.048 59.6693 43.704 61.312 41.848 62.464C40.0133 63.616 37.912 64.192 35.544 64.192C33.4533 64.192 31.544 63.712 29.816 62.752C28.088 61.7707 26.712 60.416 25.688 58.688C24.6853 56.96 24.184 55.008 24.184 52.832ZM57.478 64.224C55.9847 64.224 54.6407 63.968 53.446 63.456C52.2513 62.9227 51.3127 62.176 50.63 61.216C49.9473 60.256 49.606 59.136 49.606 57.856H53.51C53.5953 58.816 53.9687 59.6053 54.63 60.224C55.3127 60.8427 56.262 61.152 57.478 61.152C58.7367 61.152 59.718 60.8533 60.422 60.256C61.126 59.6373 61.478 58.848 61.478 57.888C61.478 57.1413 61.254 56.5333 60.806 56.064C60.3793 55.5947 59.8353 55.232 59.174 54.976C58.534 54.72 57.638 54.4427 56.486 54.144C55.0353 53.76 53.8513 53.376 52.934 52.992C52.038 52.5867 51.27 51.968 50.63 51.136C49.99 50.304 49.67 49.1947 49.67 47.808C49.67 46.528 49.99 45.408 50.63 44.448C51.27 43.488 52.166 42.752 53.318 42.24C54.47 41.728 55.8033 41.472 57.318 41.472C59.4727 41.472 61.2327 42.016 62.598 43.104C63.9847 44.1707 64.7527 45.6427 64.902 47.52H60.87C60.806 46.7093 60.422 46.016 59.718 45.44C59.014 44.864 58.086 44.576 56.934 44.576C55.8887 44.576 55.0353 44.8427 54.374 45.376C53.7127 45.9093 53.382 46.6773 53.382 47.68C53.382 48.3627 53.5847 48.928 53.99 49.376C54.4167 49.8027 54.95 50.144 55.59 50.4C56.23 50.656 57.1047 50.9333 58.214 51.232C59.686 51.6373 60.8807 52.0427 61.798 52.448C62.7367 52.8533 63.526 53.4827 64.166 54.336C64.8273 55.168 65.158 56.288 65.158 57.696C65.158 58.8267 64.8487 59.8933 64.23 60.896C63.6327 61.8987 62.7473 62.7093 61.574 63.328C60.422 63.9253 59.0567 64.224 57.478 64.224ZM76.7905 64.224C75.2972 64.224 73.9532 63.968 72.7585 63.456C71.5638 62.9227 70.6252 62.176 69.9425 61.216C69.2598 60.256 68.9185 59.136 68.9185 57.856H72.8225C72.9078 58.816 73.2812 59.6053 73.9425 60.224C74.6252 60.8427 75.5745 61.152 76.7905 61.152C78.0492 61.152 79.0305 60.8533 79.7345 60.256C80.4385 59.6373 80.7905 58.848 80.7905 57.888C80.7905 57.1413 80.5665 56.5333 80.1185 56.064C79.6918 55.5947 79.1478 55.232 78.4865 54.976C77.8465 54.72 76.9505 54.4427 75.7985 54.144C74.3478 53.76 73.1638 53.376 72.2465 52.992C71.3505 52.5867 70.5825 51.968 69.9425 51.136C69.3025 50.304 68.9825 49.1947 68.9825 47.808C68.9825 46.528 69.3025 45.408 69.9425 44.448C70.5825 43.488 71.4785 42.752 72.6305 42.24C73.7825 41.728 75.1158 41.472 76.6305 41.472C78.7852 41.472 80.5452 42.016 81.9105 43.104C83.2972 44.1707 84.0652 45.6427 84.2145 47.52H80.1825C80.1185 46.7093 79.7345 46.016 79.0305 45.44C78.3265 44.864 77.3985 44.576 76.2465 44.576C75.2012 44.576 74.3478 44.8427 73.6865 45.376C73.0252 45.9093 72.6945 46.6773 72.6945 47.68C72.6945 48.3627 72.8972 48.928 73.3025 49.376C73.7292 49.8027 74.2625 50.144 74.9025 50.4C75.5425 50.656 76.4172 50.9333 77.5265 51.232C78.9985 51.6373 80.1932 52.0427 81.1105 52.448C82.0492 52.8533 82.8385 53.4827 83.4785 54.336C84.1398 55.168 84.4705 56.288 84.4705 57.696C84.4705 58.8267 84.1612 59.8933 83.5425 60.896C82.9452 61.8987 82.0598 62.7093 80.8865 63.328C79.7345 63.9253 78.3692 64.224 76.7905 64.224Z" fill="#FFB0D2"/>
<defs>
<filter id="filter0_d_3_8" x="0" y="0" width="110" height="110" filterUnits="userSpaceOnUse" color-interpolation-filters="sRGB">
<feFlood flood-opacity="0" result="BackgroundImageFix"/>
<feColorMatrix in="SourceAlpha" type="matrix" values="0 0 0 0 0 0 0 0 0 0 0 0 0 0 0 0 0 0 127 0" result="hardAlpha"/>
<feOffset dy="4"/>
<feGaussianBlur stdDeviation="2"/>
<feComposite in2="hardAlpha" operator="out"/>
<feColorMatrix type="matrix" values="0 0 0 0 0 0 0 0 0 0 0 0 0 0 0 0 0 0 0.25 0"/>
<feBlend mode="normal" in2="BackgroundImageFix" result="effect1_dropShadow_3_8"/>
<feBlend mode="normal" in="SourceGraphic" in2="effect1_dropShadow_3_8" result="shape"/>
</filter>
</defs>
</svg>
