<svg width="110" height="110" viewBox="0 0 110 110" fill="none" xmlns="http://www.w3.org/2000/svg">
<g filter="url(#filter0_d_3_6)">
<rect x="5" y="1" width="100" height="100" rx="10" fill="#181718"/>
<rect x="4.5" y="0.5" width="101" height="101" rx="10.5" stroke="#FFB0D2"/>
</g>
<path d="M45.32 38.04C44.4933 38.04 43.8 37.76 43.24 37.2C42.68 36.64 42.4 35.9467 42.4 35.12C42.4 34.2933 42.68 33.6 43.24 33.04C43.8 32.48 44.4933 32.2 45.32 32.2C46.12 32.2 46.8 32.48 47.36 33.04C47.92 33.6 48.2 34.2933 48.2 35.12C48.2 35.9467 47.92 36.64 47.36 37.2C46.8 37.76 46.12 38.04 45.32 38.04ZM47.56 67.32C47.56 69.48 47.0133 71.04 45.92 72C44.8533 72.9867 43.2933 73.48 41.24 73.48H38.88V69.64H40.44C41.3733 69.64 42.0267 69.4533 42.4 69.08C42.8 68.7333 43 68.1467 43 67.32V40.96H47.56V67.32ZM61.5469 63.36C59.8135 63.36 58.2535 63.0533 56.8669 62.44C55.5069 61.8 54.4269 60.9467 53.6269 59.88C52.8269 58.7867 52.4002 57.5733 52.3469 56.24H57.0669C57.1469 57.1733 57.5869 57.96 58.3869 58.6C59.2135 59.2133 60.2402 59.52 61.4669 59.52C62.7469 59.52 63.7335 59.28 64.4269 58.8C65.1469 58.2933 65.5069 57.6533 65.5069 56.88C65.5069 56.0533 65.1069 55.44 64.3069 55.04C63.5335 54.64 62.2935 54.2 60.5869 53.72C58.9335 53.2667 57.5869 52.8267 56.5469 52.4C55.5069 51.9733 54.6002 51.32 53.8269 50.44C53.0802 49.56 52.7069 48.4 52.7069 46.96C52.7069 45.7867 53.0535 44.72 53.7469 43.76C54.4402 42.7733 55.4269 42 56.7069 41.44C58.0135 40.88 59.5069 40.6 61.1869 40.6C63.6935 40.6 65.7069 41.24 67.2269 42.52C68.7735 43.7733 69.6002 45.4933 69.7069 47.68H65.1469C65.0669 46.6933 64.6669 45.9067 63.9469 45.32C63.2269 44.7333 62.2535 44.44 61.0269 44.44C59.8269 44.44 58.9069 44.6667 58.2669 45.12C57.6269 45.5733 57.3069 46.1733 57.3069 46.92C57.3069 47.5067 57.5202 48 57.9469 48.4C58.3735 48.8 58.8935 49.12 59.5069 49.36C60.1202 49.5733 61.0269 49.8533 62.2269 50.2C63.8269 50.6267 65.1335 51.0667 66.1469 51.52C67.1869 51.9467 68.0802 52.5867 68.8269 53.44C69.5735 54.2933 69.9602 55.4267 69.9869 56.84C69.9869 58.0933 69.6402 59.2133 68.9469 60.2C68.2535 61.1867 67.2669 61.96 65.9869 62.52C64.7335 63.08 63.2535 63.36 61.5469 63.36Z" fill="#FFB0D2"/>
<defs>
<filter id="filter0_d_3_6" x="0" y="0" width="110" height="110" filterUnits="userSpaceOnUse" color-interpolation-filters="sRGB">
<feFlood flood-opacity="0" result="BackgroundImageFix"/>
<feColorMatrix in="SourceAlpha" type="matrix" values="0 0 0 0 0 0 0 0 0 0 0 0 0 0 0 0 0 0 127 0" result="hardAlpha"/>
<feOffset dy="4"/>
<feGaussianBlur stdDeviation="2"/>
<feComposite in2="hardAlpha" operator="out"/>
<feColorMatrix type="matrix" values="0 0 0 0 0 0 0 0 0 0 0 0 0 0 0 0 0 0 0.25 0"/>
<feBlend mode="normal" in2="BackgroundImageFix" result="effect1_dropShadow_3_6"/>
<feBlend mode="normal" in="SourceGraphic" in2="effect1_dropShadow_3_6" result="shape"/>
</filter>
</defs>
</svg>
