<svg width="110" height="110" viewBox="0 0 110 110" fill="none" xmlns="http://www.w3.org/2000/svg">
<g filter="url(#filter0_d_3_12)">
<rect x="5" y="1" width="100" height="100" rx="10" fill="#181718"/>
<rect x="4.5" y="0.5" width="101" height="101" rx="10.5" stroke="#FFB0D2"/>
</g>
<path d="M23.728 65.224C22.2347 65.224 20.8907 64.968 19.696 64.456C18.5013 63.9227 17.5627 63.176 16.88 62.216C16.1973 61.256 15.856 60.136 15.856 58.856H19.76C19.8453 59.816 20.2187 60.6053 20.88 61.224C21.5627 61.8427 22.512 62.152 23.728 62.152C24.9867 62.152 25.968 61.8533 26.672 61.256C27.376 60.6373 27.728 59.848 27.728 58.888C27.728 58.1413 27.504 57.5333 27.056 57.064C26.6293 56.5947 26.0853 56.232 25.424 55.976C24.784 55.72 23.888 55.4427 22.736 55.144C21.2853 54.76 20.1013 54.376 19.184 53.992C18.288 53.5867 17.52 52.968 16.88 52.136C16.24 51.304 15.92 50.1947 15.92 48.808C15.92 47.528 16.24 46.408 16.88 45.448C17.52 44.488 18.416 43.752 19.568 43.24C20.72 42.728 22.0533 42.472 23.568 42.472C25.7227 42.472 27.4827 43.016 28.848 44.104C30.2347 45.1707 31.0027 46.6427 31.152 48.52H27.12C27.056 47.7093 26.672 47.016 25.968 46.44C25.264 45.864 24.336 45.576 23.184 45.576C22.1387 45.576 21.2853 45.8427 20.624 46.376C19.9627 46.9093 19.632 47.6773 19.632 48.68C19.632 49.3627 19.8347 49.928 20.24 50.376C20.6667 50.8027 21.2 51.144 21.84 51.4C22.48 51.656 23.3547 51.9333 24.464 52.232C25.936 52.6373 27.1307 53.0427 28.048 53.448C28.9867 53.8533 29.776 54.4827 30.416 55.336C31.0773 56.168 31.408 57.288 31.408 58.696C31.408 59.8267 31.0987 60.8933 30.48 61.896C29.8827 62.8987 28.9973 63.7093 27.824 64.328C26.672 64.9253 25.3067 65.224 23.728 65.224ZM34.4965 53.832C34.4965 51.656 34.9978 49.704 36.0005 47.976C37.0245 46.248 38.4005 44.904 40.1285 43.944C41.8778 42.9627 43.7872 42.472 45.8565 42.472C48.2245 42.472 50.3258 43.0587 52.1605 44.232C54.0165 45.384 55.3605 47.0267 56.1925 49.16H51.8085C51.2325 47.9867 50.4325 47.112 49.4085 46.536C48.3845 45.96 47.2005 45.672 45.8565 45.672C44.3845 45.672 43.0725 46.0027 41.9205 46.664C40.7685 47.3253 39.8618 48.2747 39.2005 49.512C38.5605 50.7493 38.2405 52.1893 38.2405 53.832C38.2405 55.4747 38.5605 56.9147 39.2005 58.152C39.8618 59.3893 40.7685 60.3493 41.9205 61.032C43.0725 61.6933 44.3845 62.024 45.8565 62.024C47.2005 62.024 48.3845 61.736 49.4085 61.16C50.4325 60.584 51.2325 59.7093 51.8085 58.536H56.1925C55.3605 60.6693 54.0165 62.312 52.1605 63.464C50.3258 64.616 48.2245 65.192 45.8565 65.192C43.7658 65.192 41.8565 64.712 40.1285 63.752C38.4005 62.7707 37.0245 61.416 36.0005 59.688C34.9978 57.96 34.4965 56.008 34.4965 53.832ZM67.7905 65.224C66.2972 65.224 64.9532 64.968 63.7585 64.456C62.5638 63.9227 61.6252 63.176 60.9425 62.216C60.2598 61.256 59.9185 60.136 59.9185 58.856H63.8225C63.9078 59.816 64.2812 60.6053 64.9425 61.224C65.6252 61.8427 66.5745 62.152 67.7905 62.152C69.0492 62.152 70.0305 61.8533 70.7345 61.256C71.4385 60.6373 71.7905 59.848 71.7905 58.888C71.7905 58.1413 71.5665 57.5333 71.1185 57.064C70.6918 56.5947 70.1478 56.232 69.4865 55.976C68.8465 55.72 67.9505 55.4427 66.7985 55.144C65.3478 54.76 64.1638 54.376 63.2465 53.992C62.3505 53.5867 61.5825 52.968 60.9425 52.136C60.3025 51.304 59.9825 50.1947 59.9825 48.808C59.9825 47.528 60.3025 46.408 60.9425 45.448C61.5825 44.488 62.4785 43.752 63.6305 43.24C64.7825 42.728 66.1158 42.472 67.6305 42.472C69.7852 42.472 71.5452 43.016 72.9105 44.104C74.2972 45.1707 75.0652 46.6427 75.2145 48.52H71.1825C71.1185 47.7093 70.7345 47.016 70.0305 46.44C69.3265 45.864 68.3985 45.576 67.2465 45.576C66.2012 45.576 65.3478 45.8427 64.6865 46.376C64.0252 46.9093 63.6945 47.6773 63.6945 48.68C63.6945 49.3627 63.8972 49.928 64.3025 50.376C64.7292 50.8027 65.2625 51.144 65.9025 51.4C66.5425 51.656 67.4172 51.9333 68.5265 52.232C69.9985 52.6373 71.1932 53.0427 72.1105 53.448C73.0492 53.8533 73.8385 54.4827 74.4785 55.336C75.1398 56.168 75.4705 57.288 75.4705 58.696C75.4705 59.8267 75.1612 60.8933 74.5425 61.896C73.9452 62.8987 73.0598 63.7093 71.8865 64.328C70.7345 64.9253 69.3692 65.224 67.7905 65.224ZM87.103 65.224C85.6097 65.224 84.2657 64.968 83.071 64.456C81.8763 63.9227 80.9377 63.176 80.255 62.216C79.5723 61.256 79.231 60.136 79.231 58.856H83.135C83.2203 59.816 83.5937 60.6053 84.255 61.224C84.9377 61.8427 85.887 62.152 87.103 62.152C88.3617 62.152 89.343 61.8533 90.047 61.256C90.751 60.6373 91.103 59.848 91.103 58.888C91.103 58.1413 90.879 57.5333 90.431 57.064C90.0043 56.5947 89.4603 56.232 88.799 55.976C88.159 55.72 87.263 55.4427 86.111 55.144C84.6603 54.76 83.4763 54.376 82.559 53.992C81.663 53.5867 80.895 52.968 80.255 52.136C79.615 51.304 79.295 50.1947 79.295 48.808C79.295 47.528 79.615 46.408 80.255 45.448C80.895 44.488 81.791 43.752 82.943 43.24C84.095 42.728 85.4283 42.472 86.943 42.472C89.0977 42.472 90.8577 43.016 92.223 44.104C93.6097 45.1707 94.3777 46.6427 94.527 48.52H90.495C90.431 47.7093 90.047 47.016 89.343 46.44C88.639 45.864 87.711 45.576 86.559 45.576C85.5137 45.576 84.6603 45.8427 83.999 46.376C83.3377 46.9093 83.007 47.6773 83.007 48.68C83.007 49.3627 83.2097 49.928 83.615 50.376C84.0417 50.8027 84.575 51.144 85.215 51.4C85.855 51.656 86.7297 51.9333 87.839 52.232C89.311 52.6373 90.5057 53.0427 91.423 53.448C92.3617 53.8533 93.151 54.4827 93.791 55.336C94.4523 56.168 94.783 57.288 94.783 58.696C94.783 59.8267 94.4737 60.8933 93.855 61.896C93.2577 62.8987 92.3723 63.7093 91.199 64.328C90.047 64.9253 88.6817 65.224 87.103 65.224Z" fill="#FFB0D2"/>
<defs>
<filter id="filter0_d_3_12" x="0" y="0" width="110" height="110" filterUnits="userSpaceOnUse" color-interpolation-filters="sRGB">
<feFlood flood-opacity="0" result="BackgroundImageFix"/>
<feColorMatrix in="SourceAlpha" type="matrix" values="0 0 0 0 0 0 0 0 0 0 0 0 0 0 0 0 0 0 127 0" result="hardAlpha"/>
<feOffset dy="4"/>
<feGaussianBlur stdDeviation="2"/>
<feComposite in2="hardAlpha" operator="out"/>
<feColorMatrix type="matrix" values="0 0 0 0 0 0 0 0 0 0 0 0 0 0 0 0 0 0 0.25 0"/>
<feBlend mode="normal" in2="BackgroundImageFix" result="effect1_dropShadow_3_12"/>
<feBlend mode="normal" in="SourceGraphic" in2="effect1_dropShadow_3_12" result="shape"/>
</filter>
</defs>
</svg>
