<svg width="110" height="110" viewBox="0 0 110 110" fill="none" xmlns="http://www.w3.org/2000/svg">
<g filter="url(#filter0_d_3_9)">
<rect x="5" y="1" width="100" height="100" rx="10" fill="#181718"/>
<rect x="4.5" y="0.5" width="101" height="101" rx="10.5" stroke="#FFB0D2"/>
</g>
<path d="M37.16 40.76V63H33.512V53.272H23.048V63H19.4V40.76H23.048V50.296H33.512V40.76H37.16ZM46.2185 48.344V58.104C46.2185 58.7653 46.3678 59.2453 46.6665 59.544C46.9865 59.8213 47.5198 59.96 48.2665 59.96H50.5065V63H47.6265C45.9838 63 44.7252 62.616 43.8505 61.848C42.9758 61.08 42.5385 59.832 42.5385 58.104V48.344H40.4585V45.368H42.5385V40.984H46.2185V45.368H50.5065V48.344H46.2185ZM75.2128 45.08C76.5994 45.08 77.8368 45.368 78.9248 45.944C80.0341 46.52 80.8981 47.3733 81.5168 48.504C82.1568 49.6347 82.4768 51 82.4768 52.6V63H78.8608V53.144C78.8608 51.5653 78.4661 50.36 77.6768 49.528C76.8874 48.6747 75.8101 48.248 74.4448 48.248C73.0794 48.248 71.9914 48.6747 71.1808 49.528C70.3914 50.36 69.9968 51.5653 69.9968 53.144V63H66.3808V53.144C66.3808 51.5653 65.9861 50.36 65.1968 49.528C64.4074 48.6747 63.3301 48.248 61.9648 48.248C60.5994 48.248 59.5114 48.6747 58.7008 49.528C57.9114 50.36 57.5168 51.5653 57.5168 53.144V63H53.8688V45.368H57.5168V47.384C58.1141 46.6587 58.8714 46.0933 59.7888 45.688C60.7061 45.2827 61.6874 45.08 62.7328 45.08C64.1408 45.08 65.3994 45.3787 66.5088 45.976C67.6181 46.5733 68.4714 47.4373 69.0688 48.568C69.6021 47.5013 70.4341 46.6587 71.5648 46.04C72.6954 45.4 73.9114 45.08 75.2128 45.08ZM90.7668 39.32V63H87.1188V39.32H90.7668Z" fill="#FFB0D2"/>
<defs>
<filter id="filter0_d_3_9" x="0" y="0" width="110" height="110" filterUnits="userSpaceOnUse" color-interpolation-filters="sRGB">
<feFlood flood-opacity="0" result="BackgroundImageFix"/>
<feColorMatrix in="SourceAlpha" type="matrix" values="0 0 0 0 0 0 0 0 0 0 0 0 0 0 0 0 0 0 127 0" result="hardAlpha"/>
<feOffset dy="4"/>
<feGaussianBlur stdDeviation="2"/>
<feComposite in2="hardAlpha" operator="out"/>
<feColorMatrix type="matrix" values="0 0 0 0 0 0 0 0 0 0 0 0 0 0 0 0 0 0 0.25 0"/>
<feBlend mode="normal" in2="BackgroundImageFix" result="effect1_dropShadow_3_9"/>
<feBlend mode="normal" in="SourceGraphic" in2="effect1_dropShadow_3_9" result="shape"/>
</filter>
</defs>
</svg>
