<svg width="110" height="110" viewBox="0 0 110 110" fill="none" xmlns="http://www.w3.org/2000/svg">
<g filter="url(#filter0_d_3_15)">
<rect x="5" y="1" width="100" height="100" rx="10" fill="#181718"/>
<rect x="4.5" y="0.5" width="101" height="101" rx="10.5" stroke="#FFB0D2"/>
</g>
<path d="M23.728 65.224C22.2347 65.224 20.8907 64.968 19.696 64.456C18.5013 63.9227 17.5627 63.176 16.88 62.216C16.1973 61.256 15.856 60.136 15.856 58.856H19.76C19.8453 59.816 20.2187 60.6053 20.88 61.224C21.5627 61.8427 22.512 62.152 23.728 62.152C24.9867 62.152 25.968 61.8533 26.672 61.256C27.376 60.6373 27.728 59.848 27.728 58.888C27.728 58.1413 27.504 57.5333 27.056 57.064C26.6293 56.5947 26.0853 56.232 25.424 55.976C24.784 55.72 23.888 55.4427 22.736 55.144C21.2853 54.76 20.1013 54.376 19.184 53.992C18.288 53.5867 17.52 52.968 16.88 52.136C16.24 51.304 15.92 50.1947 15.92 48.808C15.92 47.528 16.24 46.408 16.88 45.448C17.52 44.488 18.416 43.752 19.568 43.24C20.72 42.728 22.0533 42.472 23.568 42.472C25.7227 42.472 27.4827 43.016 28.848 44.104C30.2347 45.1707 31.0027 46.6427 31.152 48.52H27.12C27.056 47.7093 26.672 47.016 25.968 46.44C25.264 45.864 24.336 45.576 23.184 45.576C22.1387 45.576 21.2853 45.8427 20.624 46.376C19.9627 46.9093 19.632 47.6773 19.632 48.68C19.632 49.3627 19.8347 49.928 20.24 50.376C20.6667 50.8027 21.2 51.144 21.84 51.4C22.48 51.656 23.3547 51.9333 24.464 52.232C25.936 52.6373 27.1307 53.0427 28.048 53.448C28.9867 53.8533 29.776 54.4827 30.416 55.336C31.0773 56.168 31.408 57.288 31.408 58.696C31.408 59.8267 31.0987 60.8933 30.48 61.896C29.8827 62.8987 28.9973 63.7093 27.824 64.328C26.672 64.9253 25.3067 65.224 23.728 65.224ZM49.1205 60.456H39.8085L38.2085 65H34.4005L42.3685 42.728H46.5925L54.5605 65H50.7205L49.1205 60.456ZM48.0965 57.48L44.4805 47.144L40.8325 57.48H48.0965ZM65.353 65.224C63.8597 65.224 62.5157 64.968 61.321 64.456C60.1263 63.9227 59.1877 63.176 58.505 62.216C57.8223 61.256 57.481 60.136 57.481 58.856H61.385C61.4703 59.816 61.8437 60.6053 62.505 61.224C63.1877 61.8427 64.137 62.152 65.353 62.152C66.6117 62.152 67.593 61.8533 68.297 61.256C69.001 60.6373 69.353 59.848 69.353 58.888C69.353 58.1413 69.129 57.5333 68.681 57.064C68.2543 56.5947 67.7103 56.232 67.049 55.976C66.409 55.72 65.513 55.4427 64.361 55.144C62.9103 54.76 61.7263 54.376 60.809 53.992C59.913 53.5867 59.145 52.968 58.505 52.136C57.865 51.304 57.545 50.1947 57.545 48.808C57.545 47.528 57.865 46.408 58.505 45.448C59.145 44.488 60.041 43.752 61.193 43.24C62.345 42.728 63.6783 42.472 65.193 42.472C67.3477 42.472 69.1077 43.016 70.473 44.104C71.8597 45.1707 72.6277 46.6427 72.777 48.52H68.745C68.681 47.7093 68.297 47.016 67.593 46.44C66.889 45.864 65.961 45.576 64.809 45.576C63.7637 45.576 62.9103 45.8427 62.249 46.376C61.5877 46.9093 61.257 47.6773 61.257 48.68C61.257 49.3627 61.4597 49.928 61.865 50.376C62.2917 50.8027 62.825 51.144 63.465 51.4C64.105 51.656 64.9797 51.9333 66.089 52.232C67.561 52.6373 68.7557 53.0427 69.673 53.448C70.6117 53.8533 71.401 54.4827 72.041 55.336C72.7023 56.168 73.033 57.288 73.033 58.696C73.033 59.8267 72.7237 60.8933 72.105 61.896C71.5077 62.8987 70.6223 63.7093 69.449 64.328C68.297 64.9253 66.9317 65.224 65.353 65.224ZM84.6655 65.224C83.1722 65.224 81.8282 64.968 80.6335 64.456C79.4388 63.9227 78.5002 63.176 77.8175 62.216C77.1348 61.256 76.7935 60.136 76.7935 58.856H80.6975C80.7828 59.816 81.1562 60.6053 81.8175 61.224C82.5002 61.8427 83.4495 62.152 84.6655 62.152C85.9242 62.152 86.9055 61.8533 87.6095 61.256C88.3135 60.6373 88.6655 59.848 88.6655 58.888C88.6655 58.1413 88.4415 57.5333 87.9935 57.064C87.5668 56.5947 87.0228 56.232 86.3615 55.976C85.7215 55.72 84.8255 55.4427 83.6735 55.144C82.2228 54.76 81.0388 54.376 80.1215 53.992C79.2255 53.5867 78.4575 52.968 77.8175 52.136C77.1775 51.304 76.8575 50.1947 76.8575 48.808C76.8575 47.528 77.1775 46.408 77.8175 45.448C78.4575 44.488 79.3535 43.752 80.5055 43.24C81.6575 42.728 82.9908 42.472 84.5055 42.472C86.6602 42.472 88.4202 43.016 89.7855 44.104C91.1722 45.1707 91.9402 46.6427 92.0895 48.52H88.0575C87.9935 47.7093 87.6095 47.016 86.9055 46.44C86.2015 45.864 85.2735 45.576 84.1215 45.576C83.0762 45.576 82.2228 45.8427 81.5615 46.376C80.9002 46.9093 80.5695 47.6773 80.5695 48.68C80.5695 49.3627 80.7722 49.928 81.1775 50.376C81.6042 50.8027 82.1375 51.144 82.7775 51.4C83.4175 51.656 84.2922 51.9333 85.4015 52.232C86.8735 52.6373 88.0682 53.0427 88.9855 53.448C89.9242 53.8533 90.7135 54.4827 91.3535 55.336C92.0148 56.168 92.3455 57.288 92.3455 58.696C92.3455 59.8267 92.0362 60.8933 91.4175 61.896C90.8202 62.8987 89.9348 63.7093 88.7615 64.328C87.6095 64.9253 86.2442 65.224 84.6655 65.224Z" fill="#FFB0D2"/>
<defs>
<filter id="filter0_d_3_15" x="0" y="0" width="110" height="110" filterUnits="userSpaceOnUse" color-interpolation-filters="sRGB">
<feFlood flood-opacity="0" result="BackgroundImageFix"/>
<feColorMatrix in="SourceAlpha" type="matrix" values="0 0 0 0 0 0 0 0 0 0 0 0 0 0 0 0 0 0 127 0" result="hardAlpha"/>
<feOffset dy="4"/>
<feGaussianBlur stdDeviation="2"/>
<feComposite in2="hardAlpha" operator="out"/>
<feColorMatrix type="matrix" values="0 0 0 0 0 0 0 0 0 0 0 0 0 0 0 0 0 0 0.25 0"/>
<feBlend mode="normal" in2="BackgroundImageFix" result="effect1_dropShadow_3_15"/>
<feBlend mode="normal" in="SourceGraphic" in2="effect1_dropShadow_3_15" result="shape"/>
</filter>
</defs>
</svg>
